<svg width="75" height="69" viewBox="0 0 75 69" fill="none" xmlns="http://www.w3.org/2000/svg">
<path d="M35.0996 13.5H39.8996" stroke="#777A85" stroke-width="2" stroke-linecap="round" stroke-linejoin="round"/>
<path d="M37.5 13.5V18.75" stroke="#777A85" stroke-width="2" stroke-linecap="round" stroke-linejoin="round"/>
<path d="M47.1004 29.25C47.1004 26.4652 46.089 23.7945 44.2886 21.8254C42.4883 19.8562 40.0465 18.75 37.5004 18.75C34.9543 18.75 32.5125 19.8562 30.7122 21.8254C28.9118 23.7945 27.9004 26.4652 27.9004 29.25" stroke="#777A85" stroke-width="2" stroke-linecap="round" stroke-linejoin="round"/>
<path d="M26.7 34.5C26.3817 34.5 26.0765 34.3617 25.8515 34.1156C25.6264 33.8694 25.5 33.5356 25.5 33.1875V31.875C25.5 31.1788 25.7529 30.5111 26.2029 30.0188C26.653 29.5266 27.2635 29.25 27.9 29.25H47.1C47.7365 29.25 48.347 29.5266 48.7971 30.0188C49.2471 30.5111 49.5 31.1788 49.5 31.875V33.1875C49.5 33.5356 49.3736 33.8694 49.1485 34.1156C48.9235 34.3617 48.6183 34.5 48.3 34.5H26.7Z" stroke="#777A85" stroke-width="2" stroke-linecap="round" stroke-linejoin="round"/>
<path d="M10.6914 64.2373H9.15332V51.8574H10.6914V64.2373ZM4.0332 52.7598C4.65299 52.7598 5.20671 52.9398 5.69434 53.2998C6.18197 53.6553 6.5625 54.1634 6.83594 54.8242C7.10938 55.4805 7.24609 56.2461 7.24609 57.1211C7.24609 58.0007 7.10938 58.7708 6.83594 59.4316C6.5625 60.0879 6.18197 60.596 5.69434 60.9561C5.20671 61.3161 4.65299 61.4961 4.0332 61.4961C3.40885 61.4961 2.85286 61.3161 2.36523 60.9561C1.8776 60.596 1.49479 60.0879 1.2168 59.4316C0.943359 58.7708 0.806641 58.0007 0.806641 57.1211C0.806641 56.2461 0.943359 55.4805 1.2168 54.8242C1.49479 54.1634 1.8776 53.6553 2.36523 53.2998C2.85286 52.9398 3.40885 52.7598 4.0332 52.7598ZM4.0332 54.127C3.68685 54.1224 3.37923 54.2409 3.11035 54.4824C2.84603 54.7194 2.64095 55.0635 2.49512 55.5146C2.34928 55.9658 2.27637 56.5013 2.27637 57.1211C2.27637 57.7409 2.34928 58.2786 2.49512 58.7344C2.64095 59.1855 2.84603 59.5296 3.11035 59.7666C3.37923 59.999 3.68685 60.1152 4.0332 60.1152C4.37956 60.1152 4.6849 59.999 4.94922 59.7666C5.21354 59.5296 5.41862 59.1855 5.56445 58.7344C5.71029 58.2786 5.7832 57.7409 5.7832 57.1211C5.7832 56.5013 5.71029 55.9658 5.56445 55.5146C5.41862 55.0635 5.21354 54.7194 4.94922 54.4824C4.68945 54.2409 4.38411 54.1224 4.0332 54.127ZM18.7649 61.2158H12.886V53.0195H18.7649V61.2158ZM14.3899 60.0059H17.2815V54.209H14.3899V60.0059ZM22.511 64.2373H20.9729V51.8574H22.511V64.2373ZM28.4039 55.3574C28.4039 56.2871 28.258 57.1849 27.9664 58.0508C27.6793 58.9121 27.2691 59.68 26.7359 60.3545C26.2027 61.0244 25.5806 61.528 24.8697 61.8652L23.9879 60.6689C24.6213 60.3727 25.1796 59.9421 25.6627 59.377C26.1457 58.8118 26.5171 58.1807 26.7769 57.4834C27.0367 56.7816 27.1666 56.0729 27.1666 55.3574V53.7305H28.4039V55.3574ZM28.7115 55.3574C28.7115 56.0456 28.8391 56.7201 29.0943 57.3809C29.3541 58.0417 29.7232 58.6364 30.2017 59.165C30.6848 59.6891 31.2476 60.0879 31.8902 60.3613L31.063 61.5576C30.3339 61.234 29.7004 60.7578 29.1627 60.1289C28.6249 59.5 28.2147 58.7754 27.9322 57.9551C27.6496 57.1302 27.5084 56.2643 27.5084 55.3574V53.7305H28.7115V55.3574ZM31.4185 54.3252H24.4527V53.0811H31.4185V54.3252ZM34.3306 64.2031H32.7925V51.8574H34.3306V64.2031ZM44.8654 53.4434C44.8654 54.1087 44.6671 54.7194 44.2706 55.2754C43.8787 55.8268 43.3182 56.2871 42.589 56.6562C41.8644 57.0254 41.0167 57.2715 40.046 57.3945L39.4923 56.1914C40.3126 56.0957 41.0258 55.9089 41.632 55.6309C42.2426 55.3529 42.7098 55.0225 43.0333 54.6396C43.3569 54.2568 43.5187 53.8581 43.5187 53.4434V53.1152H44.8654V53.4434ZM45.5763 53.4434C45.5763 53.8581 45.7404 54.2568 46.0685 54.6396C46.3966 55.0225 46.8683 55.3529 47.4835 55.6309C48.0988 55.9089 48.812 56.0957 49.6232 56.1914L49.0558 57.3945C48.0896 57.2715 47.2397 57.0254 46.506 56.6562C45.7768 56.2871 45.2117 55.8268 44.8107 55.2754C44.4142 54.7194 44.2159 54.1087 44.2159 53.4434V53.1152H45.5763V53.4434ZM49.172 53.6279H39.9503V52.4248H49.172V53.6279ZM50.2111 59.3086H38.9181V58.0781H50.2111V59.3086ZM45.4396 61.5645H43.9357V58.8506H45.4396V61.5645ZM48.9601 63.9844H40.2784V62.7402H48.9601V63.9844ZM41.8029 63.1846H40.2784V60.4229H41.8029V63.1846ZM61.0258 64.2373H59.4877V51.8574H61.0258V64.2373ZM52.9115 55.959H55.9125V52.8691H57.4096V61.3184H51.4008V52.8691H52.9115V55.959ZM55.9125 60.0742V57.1484H52.9115V60.0742H55.9125ZM68.9352 60.2178H67.4382V58.0371H68.9352V60.2178ZM73.8229 58.748H62.571V57.5244H73.8229V58.748ZM68.1833 59.7803C69.0765 59.7803 69.8421 59.8669 70.4802 60.04C71.1227 60.2087 71.6126 60.4593 71.9499 60.792C72.2917 61.1247 72.4626 61.5257 72.4626 61.9951C72.4626 62.46 72.2917 62.8564 71.9499 63.1846C71.6126 63.5127 71.1227 63.7633 70.4802 63.9365C69.8421 64.1097 69.0765 64.1963 68.1833 64.1963C67.2855 64.1963 66.5153 64.1097 65.8727 63.9365C65.2302 63.7633 64.7357 63.5127 64.3893 63.1846C64.0475 62.8564 63.8766 62.46 63.8766 61.9951C63.8766 61.5257 64.0475 61.1247 64.3893 60.792C64.7311 60.4593 65.2233 60.2087 65.8659 60.04C66.513 59.8669 67.2855 59.7803 68.1833 59.7803ZM68.1833 60.9355C67.5817 60.9355 67.0759 60.9766 66.6657 61.0586C66.2601 61.1406 65.9525 61.2591 65.7429 61.4141C65.5332 61.569 65.4284 61.7627 65.4284 61.9951C65.4284 62.2139 65.5332 62.403 65.7429 62.5625C65.9525 62.7174 66.2624 62.8382 66.6725 62.9248C67.0827 63.0068 67.5863 63.0479 68.1833 63.0479C68.7712 63.0479 69.2725 63.0068 69.6872 62.9248C70.1019 62.8382 70.4141 62.7174 70.6237 62.5625C70.8333 62.403 70.9382 62.2139 70.9382 61.9951C70.9382 61.7627 70.8333 61.569 70.6237 61.4141C70.4141 61.2591 70.1042 61.1406 69.694 61.0586C69.2839 60.9766 68.7803 60.9355 68.1833 60.9355ZM68.5046 53.3066C68.5046 53.9355 68.304 54.5098 67.903 55.0293C67.5065 55.5443 66.9391 55.9704 66.2009 56.3076C65.4671 56.6449 64.6081 56.8636 63.6237 56.9639L63.111 55.7676C63.9268 55.6855 64.64 55.5238 65.2507 55.2822C65.8659 55.0407 66.3376 54.7467 66.6657 54.4004C66.9938 54.0495 67.1579 53.6849 67.1579 53.3066V52.9648H68.5046V53.3066ZM69.2155 53.3066C69.2155 53.6849 69.3773 54.0495 69.7009 54.4004C70.029 54.7467 70.5029 55.0407 71.1227 55.2822C71.7425 55.5238 72.4671 55.6855 73.2966 55.7676L72.7565 56.9639C71.7858 56.8636 70.929 56.6449 70.1862 56.3076C69.4434 55.9704 68.8692 55.5443 68.4636 55.0293C68.058 54.5098 67.8552 53.9355 67.8552 53.3066V52.9648H69.2155V53.3066ZM72.8112 53.6143H63.5895V52.4043H72.8112V53.6143Z" fill="#777A85"/>
</svg>
