<svg width="33" height="35" viewBox="0 0 33 35" fill="none" xmlns="http://www.w3.org/2000/svg">
<path d="M24.0001 11.3252C23.8751 11.3252 23.7501 11.3127 23.6251 11.2877C23.5001 11.2627 23.3751 11.2127 23.2501 11.1377L21.9376 10.3877C21.5876 10.1877 21.2061 10.1442 20.7931 10.2572C20.3801 10.3702 20.0741 10.6012 19.8751 10.9502L19.6876 11.2502L21.1876 12.1127C21.7126 12.4127 22.0566 12.8627 22.2196 13.4627C22.3826 14.0627 22.3136 14.6252 22.0126 15.1502L21.0001 16.9502C21.5751 17.8502 22.0066 18.8067 22.2946 19.8197C22.5826 20.8327 22.7261 21.8762 22.7251 22.9502C22.7251 26.0752 21.6316 28.7317 19.4446 30.9197C17.2576 33.1077 14.6011 34.2012 11.4751 34.2002C8.3491 34.1992 5.6931 33.0932 3.5071 30.8822C1.3211 28.6712 0.2271 26.0022 0.2251 22.8752C0.2231 19.7482 1.3046 17.1042 3.4696 14.9432C5.6346 12.7822 8.2781 11.7012 11.4001 11.7002H11.8876L12.9001 9.9377C13.2001 9.3877 13.6501 9.0317 14.2501 8.8697C14.8501 8.7077 15.4251 8.7887 15.9751 9.1127L17.1001 9.7502L17.2876 9.4502C17.8626 8.3752 18.7626 7.6752 19.9876 7.3502C21.2126 7.0252 22.3626 7.1752 23.4376 7.8002L24.7126 8.5127C24.9376 8.6377 25.1251 8.8187 25.2751 9.0557C25.4251 9.2927 25.5001 9.5492 25.5001 9.8252C25.5001 10.2502 25.3561 10.6062 25.0681 10.8932C24.7801 11.1802 24.4241 11.3242 24.0001 11.3252ZM28.5001 11.7002C28.5001 11.2752 28.6441 10.9192 28.9321 10.6322C29.2201 10.3452 29.5761 10.2012 30.0001 10.2002H31.5001C31.9251 10.2002 32.2816 10.3442 32.5696 10.6322C32.8576 10.9202 33.0011 11.2762 33.0001 11.7002C32.9991 12.1242 32.8551 12.4807 32.5681 12.7697C32.2811 13.0587 31.9251 13.2022 31.5001 13.2002H30.0001C29.5751 13.2002 29.2191 13.0562 28.9321 12.7682C28.6451 12.4802 28.5011 12.1242 28.5001 11.7002ZM21.7501 4.9502C21.3251 4.9502 20.9691 4.8067 20.6821 4.5197C20.3951 4.2327 20.2511 3.8762 20.2501 3.4502V1.9502C20.2501 1.5252 20.3941 1.1692 20.6821 0.882201C20.9701 0.5952 21.3261 0.4512 21.7501 0.4502C22.1741 0.4492 22.5306 0.5932 22.8196 0.882201C23.1086 1.1712 23.2521 1.5272 23.2501 1.9502V3.4502C23.2501 3.8752 23.1061 4.2317 22.8181 4.5197C22.5301 4.8077 22.1741 4.9512 21.7501 4.9502ZM26.5126 6.9377C26.2376 6.6627 26.1001 6.3127 26.1001 5.8877C26.1001 5.4627 26.2376 5.1127 26.5126 4.8377L27.6001 3.7502C27.8751 3.4752 28.2251 3.3377 28.6501 3.3377C29.0751 3.3377 29.4251 3.4752 29.7001 3.7502C29.9751 4.0252 30.1126 4.3752 30.1126 4.8002C30.1126 5.2252 29.9751 5.5752 29.7001 5.8502L28.6126 6.9377C28.3376 7.2127 27.9876 7.3502 27.5626 7.3502C27.1376 7.3502 26.7876 7.2127 26.5126 6.9377Z" fill="#20E988"/>
</svg>
