<svg width="42" height="42" viewBox="0 0 42 42" fill="none" xmlns="http://www.w3.org/2000/svg">
<path d="M21 3.5C24.3952 3.49938 27.7174 4.48644 30.5614 6.34087C33.4055 8.19531 35.6487 10.837 37.0177 13.9441C38.3866 17.0511 38.8222 20.4893 38.2713 23.8395C37.7204 27.1898 36.2068 30.3074 33.915 32.8125" stroke="currentColor" stroke-width="2" stroke-linecap="round" stroke-linejoin="round"/>
<path d="M21 14V28" stroke="currentColor" stroke-width="2" stroke-linecap="round" stroke-linejoin="round"/>
<path d="M28 21H14" stroke="currentColor" stroke-width="2" stroke-linecap="round" stroke-linejoin="round"/>
<path d="M4.375 15.5312C3.81736 17.2264 3.52228 18.9969 3.5 20.7812" stroke="currentColor" stroke-width="2" stroke-linecap="round" stroke-linejoin="round"/>
<path d="M4.95264 28C5.93526 30.2607 7.3844 32.2883 9.20514 33.95" stroke="currentColor" stroke-width="2" stroke-linecap="round" stroke-linejoin="round"/>
<path d="M8.11279 9.16186C8.60111 8.63026 9.12186 8.12939 9.67204 7.66211" stroke="currentColor" stroke-width="2" stroke-linecap="round" stroke-linejoin="round"/>
<path d="M15.127 37.4853C19.4909 39.04 24.2933 38.8008 28.4812 36.8203" stroke="currentColor" stroke-width="2" stroke-linecap="round" stroke-linejoin="round"/>
</svg>