<svg width="24" height="24" viewBox="0 0 24 24" fill="none" xmlns="http://www.w3.org/2000/svg">
<g clip-path="url(#clip0_782_284)">
<path d="M10.125 3C9.50156 3 9 3.50156 9 4.125C9 4.74844 9.50156 5.25 10.125 5.25H10.875V6.81094C5.60625 7.36875 1.5 11.8313 1.5 17.25H22.5C22.5 11.8313 18.3937 7.36875 13.125 6.81094V5.25H13.875C14.4984 5.25 15 4.74844 15 4.125C15 3.50156 14.4984 3 13.875 3H10.125ZM1.125 18.75C0.501562 18.75 0 19.2516 0 19.875C0 20.4984 0.501562 21 1.125 21H22.875C23.4984 21 24 20.4984 24 19.875C24 19.2516 23.4984 18.75 22.875 18.75H1.125Z" fill="currentColor"/>
</g>
<defs>
<clipPath id="clip0_782_284">
<rect width="24" height="24" fill="white"/>
</clipPath>
</defs>
</svg>
