<svg width="41" height="42" viewBox="0 0 41 42" fill="none" xmlns="http://www.w3.org/2000/svg">
<path d="M40.0372 37.916C40.623 38.5018 40.623 39.4515 40.0372 40.0373C39.4514 40.6231 38.5019 40.6231 37.9161 40.0373L35.9436 38.0648L32.8302 34.9514L7.7905 9.91173L5.0447 7.16593L0.439453 2.56068C-0.146333 1.97489 -0.14656 1.02513 0.439227 0.43934C1.02501 -0.146447 1.97476 -0.146447 2.56055 0.43934L40.0372 37.916Z" fill="#36383E" fill-opacity="0.5"/>
<path fill-rule="evenodd" clip-rule="evenodd" d="M10.036 6.05582C10.2275 4.89011 10.7503 3.83868 11.6532 3.02725C12.7875 2.01582 14.3046 1.57011 15.9332 1.50725L17.5675 1.44154C18.6046 1.39868 19.1246 1.37868 19.6418 1.37868C20.1618 1.37868 20.6789 1.39868 21.7189 1.44154L23.3503 1.50725C24.9789 1.57011 26.4989 2.01582 27.6303 3.03011C28.5332 3.83868 29.0589 4.88725 29.2475 6.05868L30.136 6.15297C30.8084 6.23677 31.4722 6.31582 32.1275 6.39011C34.3132 6.64154 36.1189 8.37582 36.2903 10.6501C36.9475 19.4787 36.9475 27.8158 36.2903 36.6415C36.2512 37.1353 36.133 37.6154 35.9436 38.0648L32.8302 34.9514C33.3726 26.949 33.3384 18.9174 32.7275 10.9187C32.6976 10.6643 32.581 10.428 32.3973 10.2495C32.2136 10.071 31.974 9.96123 31.7189 9.93868L29.7103 9.69868L28.8132 9.60154C28.5332 10.2098 28.1305 10.7535 27.6303 11.1987C26.4989 12.213 24.9789 12.6587 23.3503 12.7215L21.7189 12.7844C20.6789 12.8273 20.1618 12.8473 19.6418 12.8473C19.1218 12.8473 18.6046 12.8273 17.5675 12.7844L15.9332 12.7215C14.3046 12.6587 12.7875 12.213 11.6532 11.1987C11.153 10.7535 10.7503 10.2098 10.4703 9.60154C10.1713 9.63011 9.87319 9.66249 9.57605 9.69868L7.7905 9.91173L5.0447 7.16593C5.66502 6.75181 6.38701 6.48042 7.15605 6.39297L9.14747 6.15297L10.036 6.05582ZM33.9367 40.3005L31.0012 37.365C22.9663 37.9752 15.5856 37.955 7.50747 37.3044C6.9789 37.2587 6.59033 36.8501 6.55605 36.373C5.95652 28.5233 5.91239 20.6419 6.42366 12.7875L3.20661 9.57048C3.09457 9.91274 3.02154 10.274 2.99319 10.6501C2.33545 19.3014 2.33545 27.9902 2.99319 36.6415C3.0797 37.7336 3.55315 38.759 4.32833 39.5332C5.10351 40.3073 6.12953 40.7794 7.22176 40.8644C15.7475 41.5501 23.5332 41.5501 32.0618 40.8644C32.7249 40.8128 33.3636 40.6185 33.9367 40.3005Z" fill="#36383E" fill-opacity="0.5"/>
</svg>
