<svg width="43" height="41" viewBox="0 0 43 41" fill="none" xmlns="http://www.w3.org/2000/svg">
<path fill-rule="evenodd" clip-rule="evenodd" d="M20.8974 36.3657C24.3981 36.3657 27.2742 35.7251 29.5623 34.5478L32.709 37.6945C29.5124 39.6682 25.5067 40.6545 20.8974 40.6545C14.7845 40.6545 9.70666 38.9275 6.15845 35.3793C2.61023 31.834 0.883301 26.7532 0.883301 20.6403C0.883301 16.0502 1.85704 12.0436 3.84448 8.83002L6.99 11.9755C5.82136 14.2512 5.17204 17.1255 5.17204 20.6403C5.17204 25.9641 6.66166 29.8182 9.18916 32.3486C11.7195 34.8761 15.5737 36.3657 20.8974 36.3657ZM31.8449 3.80232C32.1258 3.82313 32.3998 3.89906 32.6514 4.02578C34.6102 4.99545 36.2964 6.438 37.5577 8.22302C37.8812 8.68729 38.0081 9.26059 37.9107 9.81799C37.8133 10.3754 37.4995 10.8717 37.0378 11.1988C36.5761 11.5258 36.0038 11.6571 35.4456 11.5641C34.8875 11.471 34.3887 11.1611 34.0581 10.7019C33.2118 9.50297 32.0996 8.55469 30.7215 7.85705C30.4699 7.73033 30.2458 7.5553 30.0618 7.34195C29.8779 7.12861 29.7378 6.88113 29.6495 6.61364C29.5613 6.34615 29.5265 6.06389 29.5473 5.78298C29.5682 5.50207 29.6441 5.22801 29.7708 4.97645C29.8975 4.72488 30.0726 4.50074 30.2859 4.31682C30.4992 4.1329 30.7467 3.9928 31.0142 3.90452C31.2817 3.81624 31.564 3.78152 31.8449 3.80232ZM36.3657 24.7878C36.3022 24.5134 36.2934 24.2291 36.3397 23.9513C36.5113 22.9353 36.5942 21.8317 36.5942 20.6403C36.5942 19.449 36.5084 18.3454 36.3369 17.3294C36.2432 16.7683 36.3763 16.1929 36.7069 15.7299C36.8706 15.5007 37.0778 15.3059 37.3167 15.1567C37.5557 15.0076 37.8217 14.9069 38.0995 14.8606C38.3774 14.8142 38.6616 14.823 38.9361 14.8865C39.2105 14.95 39.4698 15.0669 39.699 15.2306C39.9283 15.3943 40.1231 15.6015 40.2722 15.8404C40.4214 16.0794 40.522 16.3454 40.5684 16.6232C40.7781 17.8984 40.8829 19.2375 40.8829 20.6403C40.8904 21.9857 40.7862 23.3294 40.5713 24.6575C40.4776 25.2186 40.1649 25.7196 39.7019 26.0501C39.2389 26.3807 38.6635 26.5138 38.1024 26.4201C37.8246 26.3738 37.5586 26.2731 37.3196 26.124C37.0807 25.9748 36.8734 25.78 36.7097 25.5508C36.5461 25.3215 36.4291 25.0622 36.3657 24.7878Z" fill="white"/>
<path d="M18.753 19.4959V15.2533L10.9726 7.47282C13.4128 5.8428 16.6958 4.91498 20.8888 4.91498C21.8238 4.92355 23.7509 5.00933 24.6944 5.22091C24.9724 5.29212 25.262 5.30678 25.5458 5.26402C25.8297 5.22126 26.102 5.12195 26.3468 4.97197C26.5915 4.82199 26.8037 4.6244 26.9707 4.39091C27.1376 4.15743 27.256 3.89279 27.3188 3.6127C27.3816 3.3326 27.3875 3.04275 27.3362 2.76033C27.2849 2.4779 27.1774 2.20865 27.0201 1.96854C26.8629 1.72842 26.659 1.52233 26.4205 1.36248C26.1821 1.20263 25.914 1.09228 25.6322 1.03796C24.1854 0.712013 21.8295 0.634816 20.9146 0.626238H20.8974C15.7222 0.626238 11.2868 1.864 7.89652 4.39678L4.2008 0.701059C3.61501 0.115272 2.66526 0.115272 2.07948 0.701059C1.49369 1.28685 1.49369 2.23659 2.07948 2.82238L5.66957 6.41247L8.70481 9.44772L18.753 19.4959Z" fill="white"/>
<path fill-rule="evenodd" clip-rule="evenodd" d="M18.753 15.2533V19.4959L28.6137 29.3566L32.0883 32.8312L35.1275 35.8704L39.5561 40.299C40.1419 40.8848 41.0917 40.8848 41.6775 40.299C42.2632 39.7133 42.2632 38.7635 41.6775 38.1777L37.1411 33.6414C37.5019 33.1574 37.8392 32.6483 38.1524 32.1142C38.4199 31.6251 38.4864 31.051 38.3379 30.5137C38.1893 29.9764 37.8374 29.5181 37.3566 29.2359C36.8759 28.9537 36.3041 28.8698 35.7625 29.002C35.221 29.1342 34.7522 29.4721 34.4555 29.944C34.3313 30.1559 34.2013 30.3632 34.0656 30.5659L23.0418 19.542V14.2072C23.0418 13.6385 22.8159 13.0931 22.4137 12.6909C22.0116 12.2888 21.4661 12.0629 20.8974 12.0629C20.3287 12.0629 19.7833 12.2888 19.3811 12.6909C18.979 13.0931 18.753 13.6385 18.753 14.2072V15.2533Z" fill="white"/>
</svg>
