<svg width="41" height="43" viewBox="0 0 41 43" fill="none" xmlns="http://www.w3.org/2000/svg">
<path d="M40.2989 38.7265C40.8847 39.3123 40.8847 40.2621 40.2989 40.8479C39.7131 41.4337 38.7636 41.4337 38.1778 40.8479L36.2053 38.8754L33.0919 35.7619L8.05222 10.7223L5.30642 7.97647L0.701172 3.37122C0.115385 2.78544 0.115159 1.83567 0.700945 1.24989C1.28673 0.6641 2.23648 0.6641 2.82227 1.24989L40.2989 38.7265Z" fill="#F7F8FA"/>
<path fill-rule="evenodd" clip-rule="evenodd" d="M10.2978 6.86637C10.4892 5.70065 11.012 4.64923 11.9149 3.8378C13.0492 2.82637 14.5663 2.38066 16.1949 2.3178L17.8292 2.25208C18.8663 2.20923 19.3863 2.18923 19.9035 2.18923C20.4235 2.18923 20.9406 2.20923 21.9806 2.25208L23.6121 2.3178C25.2406 2.38066 26.7606 2.82637 27.892 3.84066C28.7949 4.64923 29.3206 5.6978 29.5092 6.86923L30.3978 6.96351C31.0701 7.04732 31.734 7.12637 32.3892 7.20065C34.5749 7.45208 36.3806 9.18637 36.5521 11.4607C37.2092 20.2892 37.2092 28.6264 36.5521 37.4521C36.5129 37.9458 36.3947 38.4259 36.2053 38.8754L33.0919 35.7619C33.6343 27.7596 33.6001 19.7279 32.9892 11.7292C32.9593 11.4748 32.8427 11.2385 32.659 11.06C32.4753 10.8815 32.2358 10.7718 31.9806 10.7492L29.972 10.5092L29.0749 10.4121C28.7949 11.0203 28.3922 11.5641 27.892 12.0092C26.7606 13.0235 25.2406 13.4692 23.6121 13.5321L21.9806 13.5949C20.9406 13.6378 20.4235 13.6578 19.9035 13.6578C19.3835 13.6578 18.8663 13.6378 17.8292 13.5949L16.1949 13.5321C14.5663 13.4692 13.0492 13.0235 11.9149 12.0092C11.4148 11.5641 11.012 11.0203 10.732 10.4121C10.433 10.4407 10.1349 10.473 9.83776 10.5092L8.05222 10.7223L5.30642 7.97647C5.92674 7.56236 6.64873 7.29097 7.41777 7.20351L9.40919 6.96351L10.2978 6.86637ZM34.1984 41.1111L31.2629 38.1756C23.2281 38.7857 15.8473 38.7655 7.76919 38.1149C7.24062 38.0692 6.85205 37.6607 6.81776 37.1835C6.21824 29.3338 6.17411 21.4524 6.68538 13.5981L3.46833 10.381C3.35629 10.7233 3.28325 11.0846 3.25491 11.4607C2.59717 20.112 2.59717 28.8008 3.25491 37.4521C3.34142 38.5442 3.81487 39.5696 4.59005 40.3437C5.36523 41.1178 6.39125 41.5899 7.48348 41.6749C16.0092 42.3607 23.7949 42.3607 32.3235 41.6749C32.9866 41.6233 33.6254 41.429 34.1984 41.1111Z" fill="#F7F8FA"/>
</svg>
