<svg width="42" height="41" viewBox="0 0 42 41" fill="none" xmlns="http://www.w3.org/2000/svg">
<path fill-rule="evenodd" clip-rule="evenodd" d="M20.0141 36.104C23.5148 36.104 26.3909 35.4634 28.6789 34.2861L31.8257 37.4328C28.6291 39.4065 24.6234 40.3927 20.0141 40.3927C13.9012 40.3927 8.82336 38.6658 5.27515 35.1176C1.72693 31.5722 0 26.4915 0 20.3786C0 15.7884 0.973742 11.7819 2.96118 8.5683L6.1067 11.7138C4.93806 13.9895 4.28874 16.8638 4.28874 20.3786C4.28874 25.7024 5.77836 29.5565 8.30585 32.0869C10.8362 34.6144 14.6904 36.104 20.0141 36.104ZM30.9616 3.5406C31.2425 3.56141 31.5165 3.63734 31.7681 3.76406C33.7269 4.73373 35.4131 6.17628 36.6744 7.9613C36.9979 8.42557 37.1248 8.99887 37.0274 9.55627C36.93 10.1137 36.6162 10.61 36.1545 10.9371C35.6928 11.2641 35.1205 11.3954 34.5623 11.3024C34.0042 11.2093 33.5054 10.8994 33.1748 10.4402C32.3285 9.24125 31.2163 8.29297 29.8382 7.59533C29.5866 7.46861 29.3625 7.29358 29.1785 7.08024C28.9946 6.86689 28.8545 6.61941 28.7662 6.35192C28.678 6.08443 28.6432 5.80217 28.664 5.52127C28.6849 5.24036 28.7608 4.96629 28.8875 4.71473C29.0142 4.46316 29.1893 4.23902 29.4026 4.0551C29.6159 3.87118 29.8634 3.73108 30.1309 3.6428C30.3984 3.55452 30.6807 3.5198 30.9616 3.5406ZM35.4823 24.5261C35.4189 24.2516 35.4101 23.9674 35.4564 23.6895C35.628 22.6736 35.7109 21.5699 35.7109 20.3786C35.7109 19.1873 35.6251 18.0837 35.4536 17.0677C35.3599 16.5066 35.493 15.9312 35.8236 15.4682C35.9873 15.239 36.1945 15.0442 36.4334 14.895C36.6724 14.7459 36.9384 14.6452 37.2162 14.5988C37.4941 14.5525 37.7783 14.5613 38.0528 14.6248C38.3272 14.6883 38.5865 14.8052 38.8157 14.9689C39.045 15.1325 39.2398 15.3398 39.3889 15.5787C39.5381 15.8177 39.6387 16.0837 39.6851 16.3615C39.8948 17.6367 39.9996 18.9757 39.9996 20.3786C40.0071 21.724 39.9029 23.0676 39.688 24.3957C39.5943 24.9569 39.2816 25.4578 38.8186 25.7884C38.3556 26.119 37.7802 26.2521 37.2191 26.1584C36.9412 26.112 36.6753 26.0114 36.4363 25.8622C36.1973 25.7131 35.9901 25.5183 35.8264 25.289C35.6628 25.0598 35.5458 24.8005 35.4823 24.5261Z" fill="#36383E" fill-opacity="0.5"/>
<path d="M17.8697 19.2342V14.9916L10.0893 7.21111C12.5295 5.58108 15.8125 4.65326 20.0055 4.65326C20.9405 4.66183 22.8675 4.74761 23.8111 4.95919C24.0891 5.0304 24.3787 5.04507 24.6625 5.00231C24.9464 4.95954 25.2187 4.86023 25.4635 4.71025C25.7082 4.56028 25.9204 4.36269 26.0874 4.1292C26.2543 3.89571 26.3727 3.63107 26.4355 3.35098C26.4983 3.07088 26.5042 2.78103 26.4529 2.49861C26.4016 2.21618 26.2941 1.94693 26.1368 1.70682C25.9796 1.4667 25.7757 1.26061 25.5372 1.10076C25.2988 0.940913 25.0307 0.830558 24.7489 0.776238C23.3021 0.450294 20.9462 0.373097 20.0313 0.36452H20.0141C14.8389 0.36452 10.4035 1.60228 7.01322 4.13506L3.3175 0.43934C2.73171 -0.146447 1.78196 -0.146447 1.19618 0.43934C0.610389 1.02513 0.610389 1.97487 1.19618 2.56066L4.78627 6.15075L7.82151 9.186L17.8697 19.2342Z" fill="#36383E" fill-opacity="0.5"/>
<path fill-rule="evenodd" clip-rule="evenodd" d="M17.8697 14.9916V19.2342L27.7304 29.0948L31.205 32.5695L34.2442 35.6087L38.6728 40.0373C39.2586 40.6231 40.2084 40.6231 40.7942 40.0373C41.3799 39.4515 41.3799 38.5018 40.7942 37.916L36.2578 33.3797C36.6186 32.8957 36.9559 32.3866 37.2691 31.8524C37.5366 31.3633 37.6031 30.7893 37.4546 30.252C37.306 29.7147 36.9541 29.2564 36.4733 28.9742C35.9926 28.692 35.4208 28.6081 34.8792 28.7403C34.3377 28.8725 33.8689 29.2104 33.5722 29.6823C33.448 29.8942 33.318 30.1015 33.1823 30.3042L22.1585 19.2803V13.9455C22.1585 13.3768 21.9326 12.8314 21.5304 12.4292C21.1283 12.0271 20.5828 11.8012 20.0141 11.8012C19.4454 11.8012 18.9 12.0271 18.4978 12.4292C18.0957 12.8314 17.8697 13.3768 17.8697 13.9455V14.9916Z" fill="#36383E" fill-opacity="0.5"/>
</svg>
