<svg width="35" height="50" viewBox="0 0 35 50" fill="none" xmlns="http://www.w3.org/2000/svg">
<path d="M18.4981 20.994C19.9568 20.994 21.3558 21.5734 22.3872 22.6049C23.4187 23.6363 23.9981 25.0353 23.9981 26.494M18.4981 20.994C17.0394 20.994 15.6405 21.5734 14.609 22.6049C13.5776 23.6363 12.9981 25.0353 12.9981 26.494M18.4981 20.994V19.1606M23.9981 26.494H12.9981M23.9981 26.494H25.8315M12.9981 26.494H11.1648M11.1648 33.8273H25.8315M4.59229 9.33302L18.1315 3.66069C21.1546 2.39386 22.6653 1.75952 23.8698 2.08402C24.6507 2.29388 25.3404 2.75603 25.8315 3.39852C26.5923 4.39218 26.9648 5.36615 26.9648 8.66064" stroke="#92949D" stroke-width="3" stroke-linecap="round" stroke-linejoin="round"/>
<path d="M29.9252 47.0496C30.6535 46.9762 31.3318 46.6458 31.8386 46.1177C32.3454 45.5896 32.6476 44.8983 32.6909 44.1676C33.0084 38.9819 33.1781 33.9282 33.1781 28.161C33.1781 22.3939 33.0084 17.3402 32.6878 12.1545C32.6444 11.4238 32.3423 10.7325 31.8354 10.2043C31.3286 9.67623 30.6503 9.34587 29.9221 9.27247C21.6621 8.40853 13.3346 8.40853 5.07463 9.27247C4.34694 9.34657 3.66937 9.67724 3.1632 10.2053C2.65704 10.7333 2.35532 11.4243 2.31206 12.1545C1.99149 17.3402 1.82178 22.3939 1.82178 28.161C1.82178 33.9282 1.99149 38.9819 2.31206 44.1676C2.40635 45.6762 3.56921 46.8988 5.07778 47.0496C13.7143 47.9139 21.2855 47.9139 29.9252 47.0496Z" stroke="#92949D" stroke-width="3.14286" stroke-linecap="round" stroke-linejoin="round"/>
</svg>
