<svg width="25" height="24" viewBox="0 0 25 24" fill="none" xmlns="http://www.w3.org/2000/svg">
<path d="M5.11103 7.3645L2.69389 12.6376C2.63903 17.3656 1.84532 18.5725 4.56589 22.1914C5.85675 22.5154 6.98818 22.6336 8.29446 22.3559C11.9545 21.5742 14.747 18.7971 13.5847 14.9434L18.4996 13.4845C19.0661 13.3158 19.5424 12.929 19.8237 12.4092C20.105 11.8893 20.1683 11.279 19.9996 10.7125C19.8309 10.146 19.4441 9.66971 18.9243 9.3884C18.4044 9.1071 17.7941 9.04383 17.2276 9.2125L8.93046 11.6896L8.76075 8.0725C8.74055 7.64428 8.5771 7.23525 8.29663 6.91102C8.01616 6.5868 7.63492 6.36617 7.21407 6.28453C6.79321 6.20289 6.35713 6.26496 5.97577 6.4608C5.59442 6.65664 5.28989 6.97489 5.11103 7.3645Z" fill="#DAFBEB"/>
<path d="M2.69399 12.6321L5.11113 7.35891C5.28947 6.9684 5.59399 6.64921 5.97569 6.45271C6.35739 6.2562 6.79409 6.19378 7.21555 6.2755C7.63702 6.35723 8.01875 6.57833 8.29934 6.90326C8.57994 7.22818 8.74309 7.63804 8.76256 8.06691L8.93056 11.6841L17.2277 9.20691C17.5105 9.1148 17.8089 9.08022 18.1052 9.10522C18.4016 9.13023 18.69 9.2143 18.9533 9.35248C19.2167 9.49067 19.4498 9.68018 19.6387 9.90984C19.8277 10.1395 19.9688 10.4047 20.0537 10.6897C20.1387 10.9747 20.1656 11.2739 20.1331 11.5695C20.1006 11.8652 20.0092 12.1513 19.8644 12.4111C19.7196 12.6709 19.5242 12.899 19.2899 13.0821C19.0555 13.2652 18.7868 13.3996 18.4997 13.4772L13.5866 14.9378C14.7471 18.7898 12.0008 21.5429 8.34084 22.3263C7.09564 22.6132 5.79697 22.5682 4.57456 22.1961M14.9117 2.80063L15.0214 1.58691M10.482 3.44177L11.2826 4.35891M19.0328 4.4652L17.9631 5.04806" stroke="#20E988" stroke-width="1.71429" stroke-linecap="round" stroke-linejoin="round"/>
</svg>
