<svg width="25" height="24" viewBox="0 0 25 24" fill="none" xmlns="http://www.w3.org/2000/svg">
<path d="M8.03007 6.53009C8.16255 6.38792 8.23468 6.19987 8.23125 6.00557C8.22782 5.81127 8.14911 5.62588 8.01169 5.48847C7.87428 5.35106 7.6889 5.27234 7.4946 5.26892C7.30029 5.26549 7.11225 5.33761 6.97007 5.47009L4.97007 7.47009C4.82962 7.61072 4.75073 7.80134 4.75073 8.00009C4.75073 8.19884 4.82962 8.38946 4.97007 8.53009L6.97007 10.5301C7.03873 10.6038 7.12154 10.6629 7.21353 10.7039C7.30553 10.7449 7.40485 10.7669 7.50555 10.7687C7.60625 10.7705 7.70628 10.7519 7.79967 10.7142C7.89306 10.6765 7.97789 10.6203 8.04911 10.5491C8.12033 10.4779 8.17647 10.3931 8.2142 10.2997C8.25192 10.2063 8.27044 10.1063 8.26866 10.0056C8.26689 9.90487 8.24485 9.80555 8.20385 9.71355C8.16286 9.62155 8.10376 9.53875 8.03007 9.47009L7.31007 8.75009H17.5001C17.699 8.75009 17.8898 8.67107 18.0304 8.53042C18.1711 8.38977 18.2501 8.199 18.2501 8.00009C18.2501 7.80118 18.1711 7.61041 18.0304 7.46976C17.8898 7.32911 17.699 7.25009 17.5001 7.25009H7.31007L8.03007 6.53009ZM16.9701 13.4701C16.8296 13.6107 16.7507 13.8013 16.7507 14.0001C16.7507 14.1988 16.8296 14.3895 16.9701 14.5301L17.6901 15.2501H7.50007C7.30116 15.2501 7.11039 15.3291 6.96974 15.4698C6.82909 15.6104 6.75007 15.8012 6.75007 16.0001C6.75007 16.199 6.82909 16.3898 6.96974 16.5304C7.11039 16.6711 7.30116 16.7501 7.50007 16.7501H17.6901L16.9701 17.4701C16.8964 17.5388 16.8373 17.6216 16.7963 17.7136C16.7553 17.8056 16.7333 17.9049 16.7315 18.0056C16.7297 18.1063 16.7482 18.2063 16.7859 18.2997C16.8237 18.3931 16.8798 18.4779 16.951 18.5491C17.0223 18.6203 17.1071 18.6765 17.2005 18.7142C17.2939 18.7519 17.3939 18.7705 17.4946 18.7687C17.5953 18.7669 17.6946 18.7449 17.7866 18.7039C17.8786 18.6629 17.9614 18.6038 18.0301 18.5301L20.0301 16.5301C20.1705 16.3895 20.2494 16.1988 20.2494 16.0001C20.2494 15.8013 20.1705 15.6107 20.0301 15.4701L18.0301 13.4701C17.8894 13.3296 17.6988 13.2508 17.5001 13.2508C17.3013 13.2508 17.1107 13.3296 16.9701 13.4701Z" fill="white"/>
</svg>
