<svg width="18" height="21" viewBox="0 0 18 21" fill="none" xmlns="http://www.w3.org/2000/svg">
<path d="M7.0032 2H11.0032C11.5532 2 12.0032 1.55 12.0032 1C12.0032 0.45 11.5532 0 11.0032 0H7.0032C6.4532 0 6.0032 0.45 6.0032 1C6.0032 1.55 6.4532 2 7.0032 2ZM16.0332 6.39L16.7832 5.64C16.9681 5.45395 17.0719 5.2023 17.0719 4.94C17.0719 4.6777 16.9681 4.42605 16.7832 4.24L16.7732 4.23C16.5872 4.04509 16.3355 3.94131 16.0732 3.94131C15.8109 3.94131 15.5592 4.04509 15.3732 4.23L14.6232 4.98C13.0306 3.69818 11.0476 2.99953 9.0032 3C4.2032 3 0.123201 6.96 0.00320079 11.76C-0.0288624 12.9619 0.180237 14.1581 0.618152 15.2779C1.05607 16.3977 1.71392 17.4184 2.55286 18.2797C3.3918 19.141 4.39482 19.8255 5.5027 20.2927C6.61057 20.7599 7.80083 21.0004 9.0032 21C10.6975 21.0009 12.3576 20.5232 13.7923 19.622C15.227 18.7207 16.378 17.4325 17.1126 15.9057C17.8473 14.379 18.1357 12.6758 17.9447 10.9923C17.7538 9.30874 17.0912 7.71341 16.0332 6.39ZM10.0032 12C10.0032 12.55 9.5532 13 9.0032 13C8.4532 13 8.0032 12.55 8.0032 12V8C8.0032 7.45 8.4532 7 9.0032 7C9.5532 7 10.0032 7.45 10.0032 8V12Z" fill="currentColor"/>
</svg>
