<svg width="24" height="24" viewBox="0 0 24 24" fill="none" xmlns="http://www.w3.org/2000/svg">
<path d="M14.5781 2H9.42102L8.82942 4.94273C8.3396 5.16096 7.87384 5.42906 7.43958 5.74273L4.57761 4.78L2 9.22L4.26855 11.2018C4.21377 11.7325 4.21377 12.2675 4.26855 12.7982L2 14.78L4.57852 19.22L7.43958 18.2582C7.87117 18.5691 8.33566 18.8382 8.82942 19.0573L9.42102 22H14.5781L15.1697 19.0573C15.6595 18.839 16.1252 18.5709 16.5595 18.2573L19.4215 19.22L22 14.78L19.7305 12.7982C19.7853 12.2675 19.7853 11.7325 19.7305 11.2018L21.9991 9.22L19.4206 4.78L16.5604 5.74182C16.1261 5.42847 15.6604 5.16068 15.1706 4.94273L14.5781 2ZM11.9995 15.6364C11.0295 15.6364 10.0992 15.2532 9.41332 14.5713C8.72741 13.8893 8.34207 12.9644 8.34207 12C8.34207 11.0356 8.72741 10.1107 9.41332 9.4287C10.0992 8.74675 11.0295 8.36364 11.9995 8.36364C12.9696 8.36364 13.8999 8.74675 14.5858 9.4287C15.2717 10.1107 15.657 11.0356 15.657 12C15.657 12.9644 15.2717 13.8893 14.5858 14.5713C13.8999 15.2532 12.9696 15.6364 11.9995 15.6364Z" fill="currentColor"/>
</svg>
