<svg width="19" height="19" viewBox="0 0 19 19" fill="none" xmlns="http://www.w3.org/2000/svg">
<path d="M0.5 6V15.25C0.5 17.04 1.96 18.5 3.75 18.5H15.25C17.04 18.5 18.5 17.04 18.5 15.25V6H0.5ZM13.2815 11.224L11.5535 12.5345L12.1385 14.407C12.2225 14.6755 12.1235 14.968 11.8935 15.1305C11.7815 15.21 11.65 15.25 11.519 15.25C11.382 15.25 11.245 15.2065 11.13 15.1205L9.5 13.8995L7.87 15.12C7.645 15.2895 7.3365 15.293 7.1065 15.1305C6.8765 14.968 6.778 14.676 6.8615 14.407L7.4465 12.5345L5.7185 11.224C5.496 11.0555 5.4065 10.764 5.4955 10.5C5.5845 10.236 5.832 10.058 6.1105 10.058H8.2435L8.886 8.1885C8.9765 7.926 9.223 7.75 9.5 7.75C9.777 7.75 10.0235 7.926 10.114 8.188L10.7565 10.0575H12.8895C13.168 10.0575 13.4155 10.2355 13.5045 10.4995C13.5935 10.764 13.5035 11.0555 13.2815 11.224ZM18.5 4.5V3.75C18.5 1.96 17.04 0.5 15.25 0.5H3.75C1.96 0.5 0.5 1.96 0.5 3.75V4.5H18.5Z" fill="#355EFF"/>
</svg>
