<svg width="24" height="25" viewBox="0 0 24 25" fill="none" xmlns="http://www.w3.org/2000/svg">
<path d="M2.04932 19.2502V11.2424H4.31494V19.2502C4.31494 19.7739 4.52282 20.2765 4.89307 20.6467C5.26331 21.0169 5.76597 21.2249 6.28955 21.2249H13.5542L18.106 21.1829C18.5396 21.0945 18.9324 20.8654 19.2192 20.5266C19.5209 20.1701 19.686 19.7182 19.686 19.2512V11.2424H21.9517V19.2502C21.9519 20.2535 21.5969 21.2247 20.9487 21.9905C20.3005 22.7563 19.4012 23.2673 18.4116 23.4329L18.3237 23.4475L18.2349 23.4485L13.5747 23.4905H6.28955C5.16511 23.4905 4.08662 23.0434 3.2915 22.2483C2.49638 21.4532 2.04932 20.3747 2.04932 19.2502Z" fill="currentColor"/>
<path d="M20.8672 8.94345C20.8671 8.69972 20.7393 7.94058 20.2549 7.11826C19.8018 6.34911 19.0612 5.56734 17.8691 5.10752C13.3206 4.47749 10.7404 4.47157 6.12891 5.10752C4.93812 5.56723 4.19808 6.34829 3.74512 7.11728C3.26071 7.9398 3.13287 8.69966 3.13281 8.94345C3.13281 10.1421 4.23962 11.2969 5.84473 11.297C6.77665 11.297 7.57136 10.8917 8.0498 10.3136L8.92188 9.26084L9.79395 10.3126C10.2749 10.8925 11.0675 11.2969 11.998 11.297C12.9297 11.297 13.7256 10.8919 14.2061 10.3126L15.0781 9.26084L15.9502 10.3136C16.4289 10.8921 17.222 11.2969 18.1533 11.297C19.7601 11.297 20.8672 10.1406 20.8672 8.94345ZM23.1328 8.94345C23.1328 11.5959 20.797 13.5626 18.1533 13.5626C17.0038 13.5626 15.9312 13.1986 15.0762 12.5743C14.2203 13.1982 13.1473 13.5626 11.998 13.5626C10.848 13.5625 9.7766 13.1983 8.92188 12.5743C8.06632 13.1983 6.99355 13.5626 5.84473 13.5626C3.20274 13.5625 0.867188 11.5974 0.867188 8.94345C0.867231 8.25648 1.12406 7.10366 1.79297 5.96787C2.48066 4.80024 3.63434 3.60023 5.45898 2.93857L5.57031 2.89756L5.68848 2.88193C10.3228 2.23625 13.0742 2.20129 17.4189 2.76181L18.3105 2.88193L18.4277 2.89756L18.5391 2.93857C20.3645 3.60018 21.5191 4.80013 22.207 5.96787C22.8762 7.10369 23.1328 8.25648 23.1328 8.94345Z" fill="currentColor"/>
</svg>