<svg width="20" height="20" viewBox="0 0 20 20" fill="none" xmlns="http://www.w3.org/2000/svg">
<path d="M6.77067 17.6778C5.75678 17.24 4.8715 16.6428 4.11484 15.8862C3.35817 15.1295 2.76095 14.2439 2.32317 13.2295C1.88539 12.215 1.6665 11.1353 1.6665 9.99033C1.6665 8.84533 1.88539 7.76894 2.32317 6.76116C2.76095 5.75338 3.35817 4.87144 4.11484 4.11533C4.8715 3.35922 5.75678 2.76199 6.77067 2.32366C7.78456 1.88533 8.86456 1.66644 10.0107 1.66699C11.1568 1.66755 12.2332 1.88644 13.2398 2.32366C14.2465 2.76088 15.1284 3.3581 15.8857 4.11533C16.6429 4.87255 17.2401 5.75449 17.6773 6.76116C18.1146 7.76783 18.3332 8.84421 18.3332 9.99033C18.3332 11.1364 18.1146 12.2162 17.6773 13.2295C17.2401 14.2428 16.6429 15.1284 15.8857 15.8862C15.1284 16.6439 14.2465 17.2412 13.2398 17.6778C12.2332 18.1145 11.1568 18.3331 10.0107 18.3337C8.86456 18.3342 7.78456 18.1156 6.77067 17.6778ZM9.99984 16.6253C10.3609 16.1253 10.6734 15.6045 10.9373 15.0628C11.2012 14.5212 11.4165 13.9448 11.5832 13.3337H8.4165C8.58317 13.9448 8.79845 14.5212 9.06234 15.0628C9.32623 15.6045 9.63873 16.1253 9.99984 16.6253ZM7.83317 16.292C7.58317 15.8337 7.36456 15.3578 7.17734 14.8645C6.99011 14.3712 6.83373 13.8609 6.70817 13.3337H4.24984C4.65261 14.0281 5.15623 14.6323 5.76067 15.1462C6.36511 15.66 7.05595 16.042 7.83317 16.292ZM12.1665 16.292C12.9443 16.042 13.6354 15.66 14.2398 15.1462C14.8443 14.6323 15.3476 14.0281 15.7498 13.3337H13.2915C13.1665 13.8614 13.0104 14.372 12.8232 14.8653C12.6359 15.3587 12.4171 15.8342 12.1665 16.292ZM3.5415 11.667H6.37484C6.33317 11.3892 6.30206 11.115 6.2815 10.8445C6.26095 10.5739 6.25039 10.2925 6.24984 10.0003C6.24928 9.7081 6.25984 9.42699 6.2815 9.15699C6.30317 8.88699 6.33428 8.61255 6.37484 8.33366H3.5415C3.47206 8.61144 3.42012 8.88588 3.38567 9.15699C3.35123 9.4281 3.33373 9.70922 3.33317 10.0003C3.33261 10.2914 3.35012 10.5728 3.38567 10.8445C3.42123 11.1162 3.47317 11.3903 3.5415 11.667ZM8.0415 11.667H11.9582C11.9998 11.3892 12.0312 11.115 12.0523 10.8445C12.0734 10.5739 12.0837 10.2925 12.0832 10.0003C12.0826 9.7081 12.0721 9.42699 12.0515 9.15699C12.0309 8.88699 11.9998 8.61255 11.9582 8.33366H8.0415C7.99984 8.61144 7.96873 8.88588 7.94817 9.15699C7.92761 9.4281 7.91706 9.70922 7.9165 10.0003C7.91595 10.2914 7.9265 10.5728 7.94817 10.8445C7.96984 11.1162 8.00095 11.3903 8.0415 11.667ZM13.6248 11.667H16.4582C16.5276 11.3892 16.5798 11.115 16.6148 10.8445C16.6498 10.5739 16.6671 10.2925 16.6665 10.0003C16.6659 9.7081 16.6487 9.42699 16.6148 9.15699C16.5809 8.88699 16.5287 8.61255 16.4582 8.33366H13.6248C13.6665 8.61144 13.6979 8.88588 13.719 9.15699C13.7401 9.4281 13.7504 9.70922 13.7498 10.0003C13.7493 10.2914 13.7387 10.5728 13.7182 10.8445C13.6976 11.1162 13.6665 11.3903 13.6248 11.667ZM13.2915 6.66699H15.7498C15.3471 5.97255 14.8437 5.36838 14.2398 4.85449C13.6359 4.3406 12.9448 3.95866 12.1665 3.70866C12.4165 4.16699 12.6354 4.64283 12.8232 5.13616C13.0109 5.62949 13.1671 6.13977 13.2915 6.66699ZM8.4165 6.66699H11.5832C11.4165 6.05588 11.2012 5.47949 10.9373 4.93783C10.6734 4.39616 10.3609 3.87533 9.99984 3.37533C9.63873 3.87533 9.32623 4.39616 9.06234 4.93783C8.79845 5.47949 8.58317 6.05588 8.4165 6.66699ZM4.24984 6.66699H6.70817C6.83317 6.13922 6.98956 5.62866 7.17734 5.13533C7.36511 4.64199 7.58373 4.16644 7.83317 3.70866C7.05539 3.95866 6.36428 4.3406 5.75984 4.85449C5.15539 5.36838 4.65206 5.97255 4.24984 6.66699Z" fill="#36383E" fill-opacity="0.9"/>
</svg>
