<svg width="25" height="21" viewBox="0 0 25 21" fill="none" xmlns="http://www.w3.org/2000/svg">
<path d="M19.6924 0.688477C19.6924 1.90035 19.6943 2.66211 19.7412 3.23633C19.7856 3.77916 19.8577 3.93779 19.8799 3.98145C20.0451 4.30566 20.3096 4.57015 20.6338 4.73535C20.6774 4.75749 20.8359 4.82966 21.3789 4.87402C21.9531 4.92089 22.7149 4.92285 23.9268 4.92285H24.6152V9.8457H23.9268C22.7957 9.8457 21.7987 9.84832 20.9775 9.78125C20.5355 9.74513 20.0861 9.68415 19.6367 9.57422C19.6716 9.8652 19.6924 10.1615 19.6924 10.4619C19.6921 14.5401 16.3859 17.8457 12.3076 17.8457C11.4226 17.8457 10.5745 17.6888 9.78809 17.4033C9.84587 18.2014 9.8457 19.157 9.8457 20.2344V20.9229H4.92285V20.2344C4.92285 19.0225 4.92089 18.2607 4.87402 17.6865C4.82965 17.1434 4.75748 16.985 4.73535 16.9414C4.57022 16.6173 4.30646 16.3527 3.98242 16.1875C3.93919 16.1655 3.78041 16.0933 3.23633 16.0488C2.66213 16.002 1.90027 16 0.688477 16H0V11.0771H0.688477C1.81966 11.0771 2.81739 11.0745 3.63867 11.1416C4.08016 11.1777 4.52874 11.238 4.97754 11.3477C4.94279 11.0572 4.92287 10.7617 4.92285 10.4619C4.92285 6.38353 8.22924 3.07719 12.3076 3.07715C13.1922 3.07715 14.0401 3.23336 14.8262 3.51855C14.7685 2.72072 14.7695 1.76537 14.7695 0.688477V0H19.6924V0.688477ZM12.3076 8C10.9482 8.00004 9.8457 9.10247 9.8457 10.4619C9.84597 11.8211 10.9483 12.9228 12.3076 12.9229C13.6669 12.9229 14.7693 11.8212 14.7695 10.4619C14.7695 9.10244 13.6671 8 12.3076 8Z" fill="#FFCC3E"/>
</svg>
