<svg width="24" height="25" viewBox="0 0 24 25" fill="none" xmlns="http://www.w3.org/2000/svg">
<path d="M16.5512 3.83488C17.1166 3.90797 17.6773 3.97899 18.2318 4.04777L18.2309 4.04874C18.8753 4.12536 19.4736 4.42129 19.9242 4.88859C20.3204 5.29946 20.5809 5.81955 20.6742 6.37882L20.7045 6.62101V6.62882C21.0421 11.3225 21.0421 16.0348 20.7045 20.7284C20.6576 21.3845 20.3789 22.0028 19.9174 22.4716C19.4555 22.9407 18.8409 23.2292 18.185 23.286L18.182 23.287C13.8318 23.6517 9.84767 23.6517 5.49746 23.287L5.49551 23.286C4.83926 23.2298 4.2245 22.9416 3.76211 22.4726C3.29994 22.0037 3.02005 21.3851 2.97305 20.7284L2.91348 19.8476C2.63655 15.4453 2.65655 11.0291 2.97305 6.62882L2.97402 6.62101C3.02537 5.9703 3.30099 5.35725 3.7543 4.88761C4.20432 4.42144 4.80167 4.12573 5.44473 4.04874L5.45644 4.04679L5.45937 4.04581V4.04679L7.13125 3.8339C7.77752 3.75219 8.36764 4.21011 8.44961 4.85636C8.5315 5.5028 8.07359 6.09381 7.42715 6.1757L5.7416 6.38859C5.73706 6.38916 5.73247 6.39002 5.72793 6.39054C5.62331 6.40252 5.52573 6.45058 5.45254 6.52628C5.37933 6.60212 5.33485 6.70147 5.32656 6.80656L5.32558 6.80558C4.99664 11.384 4.99726 15.9801 5.32656 20.5585V20.5595C5.33341 20.6559 5.37489 20.7475 5.44277 20.8163C5.51053 20.8849 5.60062 20.9272 5.69668 20.9355H5.6957C9.91326 21.289 13.7635 21.2889 17.9809 20.9355C18.0771 20.9271 18.168 20.8851 18.2357 20.8163C18.3035 20.7475 18.3441 20.6559 18.351 20.5595V20.5585C18.6803 15.9804 18.6808 11.3846 18.352 6.80656L18.3393 6.72843C18.3198 6.65286 18.2808 6.58309 18.226 6.52628C18.1529 6.45047 18.0552 6.40263 17.9506 6.39054L17.9408 6.38956C17.3823 6.3203 16.8186 6.2483 16.2494 6.17472C15.6032 6.09118 15.1463 5.49966 15.2299 4.85343C15.3134 4.20735 15.9051 3.75155 16.5512 3.83488Z" fill="currentColor"/>
<path d="M14.0139 1.20068V1.81592C14.0141 1.20054 14.0144 1.20068 14.0149 1.20068H14.0393C14.0503 1.20086 14.0638 1.20114 14.0793 1.20166C14.1108 1.20271 14.1518 1.20503 14.2004 1.2085C14.2974 1.21542 14.4284 1.22876 14.5823 1.25439C14.8846 1.30479 15.306 1.40778 15.7415 1.62549C16.1815 1.8455 16.6574 2.19393 17.0208 2.73877C17.389 3.29116 17.595 3.97499 17.595 4.78174H16.4143L17.595 4.78271V4.78662C17.595 4.78842 17.594 4.79039 17.594 4.79248C17.594 4.79671 17.5941 4.80172 17.594 4.80713C17.5938 4.81821 17.5935 4.83237 17.593 4.84814C17.592 4.8796 17.5906 4.92068 17.5872 4.96924C17.5802 5.06625 17.5669 5.19725 17.5413 5.35107C17.4909 5.65351 17.3878 6.07474 17.1702 6.51025C16.9502 6.95044 16.6017 7.42697 16.0569 7.79053C15.5046 8.15899 14.8206 8.36369 14.0139 8.36377H9.66431V7.18408C9.66431 8.27707 9.66388 8.35785 9.66333 8.36377H9.63794C9.62692 8.36359 9.61352 8.36331 9.5979 8.36279C9.5664 8.36174 9.52552 8.36041 9.47681 8.35693C9.3798 8.35 9.2489 8.33669 9.09497 8.31104C8.79261 8.26064 8.37125 8.15766 7.93579 7.93994C7.49568 7.71988 7.01983 7.37069 6.65649 6.82568C6.28827 6.27331 6.08325 5.58943 6.08325 4.78271H7.26294C6.08311 4.78272 6.08325 4.78233 6.08325 4.78174V4.75732C6.08343 4.74633 6.08371 4.7329 6.08423 4.71729C6.08528 4.68583 6.0876 4.64481 6.09106 4.59619C6.09799 4.49922 6.11135 4.36823 6.13696 4.21436C6.18734 3.91188 6.29038 3.48985 6.50806 3.0542C6.72804 2.61404 7.07648 2.13741 7.62134 1.77393C8.17371 1.40552 8.85753 1.20068 9.66431 1.20068H14.0139ZM9.66431 3.56006C9.27101 3.56006 9.05388 3.65487 8.93091 3.73682C8.80061 3.82374 8.69857 3.94851 8.61841 4.10889C8.53594 4.27394 8.48877 4.454 8.46411 4.60205C8.4523 4.67305 8.44703 4.72988 8.44458 4.76416L8.44263 4.79541L8.44653 4.92236C8.4658 5.22959 8.54765 5.40946 8.61938 5.51709C8.70627 5.64742 8.83127 5.74852 8.99146 5.82861C9.15614 5.91094 9.3349 5.95826 9.48267 5.98291C9.5536 5.99473 9.61046 5.99998 9.64478 6.00244C9.66107 6.0036 9.67196 6.00425 9.67603 6.00439H14.0139C14.4073 6.00432 14.6244 5.9096 14.7473 5.82764C14.8775 5.7407 14.9787 5.6159 15.0588 5.45557C15.1413 5.2906 15.1885 5.11138 15.2131 4.96338C15.2249 4.89249 15.2302 4.83568 15.2327 4.80127C15.2339 4.78429 15.2345 4.77274 15.2346 4.76904C15.2326 4.38311 15.139 4.169 15.0579 4.04736C14.971 3.91725 14.8467 3.81585 14.6868 3.73584C14.522 3.65344 14.3424 3.60618 14.1946 3.58154C14.1235 3.5697 14.0667 3.56446 14.0325 3.56201L14.0012 3.56006H9.66431Z" fill="currentColor"/>
</svg>