<svg width="24" height="25" viewBox="0 0 24 25" fill="none" xmlns="http://www.w3.org/2000/svg">
<g clip-path="url(#clip0_476_1757)">
<path d="M17.1868 1.92687C16.7348 2.04799 16.3906 2.41518 16.296 2.87328L16.0009 4.31519L10.5335 8.61708C10.2189 8.86494 10.0827 9.27411 10.1862 9.66048L11.9156 16.1144C12.0191 16.5008 12.3424 16.7899 12.7385 16.8463L19.6244 17.8382L20.6009 18.9393C20.9119 19.2888 21.3935 19.4347 21.8456 19.3135C22.5053 19.1368 22.8966 18.4591 22.7198 17.7993L21.1578 11.9698C21.4056 11.722 21.584 11.4134 21.675 11.075C21.766 10.7365 21.7665 10.3801 21.6763 10.0414C21.5853 9.70262 21.4067 9.39375 21.1586 9.14579C20.9104 8.89783 20.6014 8.71951 20.2625 8.62871L18.701 2.80108C18.5243 2.14136 17.8466 1.75009 17.1868 1.92687ZM4.22033 10.5776C3.15781 10.8623 2.52142 11.9646 2.80612 13.0271L3.84139 16.8908C4.1261 17.9533 5.22837 18.5897 6.29088 18.305L8.22274 17.7874L9.25801 21.6511C9.40088 22.1843 9.94957 22.5011 10.4828 22.3582C11.0159 22.2153 11.3327 21.6666 11.1899 21.1334L9.63695 15.3379L8.34285 10.5083C8.19999 9.97507 7.6513 9.65829 7.11811 9.80116L4.22033 10.5776Z" fill="#D94141"/>
</g>
<defs>
<clipPath id="clip0_476_1757">
<rect width="24" height="24" fill="white" transform="translate(0 0.5)"/>
</clipPath>
</defs>
</svg>
