<svg width="13" height="17" viewBox="0 0 13 17" fill="none" xmlns="http://www.w3.org/2000/svg">
<path fill-rule="evenodd" clip-rule="evenodd" d="M5.67375 16.0513L5.6775 16.055L5.68 16.0575C5.84403 16.1818 6.04419 16.2491 6.25 16.2491C6.45581 16.2491 6.65597 16.1818 6.82 16.0575L6.8225 16.055L6.82625 16.0513L6.84125 16.04C6.9217 15.9779 7.00089 15.9141 7.07875 15.8488C8.01072 15.0631 8.86696 14.1918 9.63625 13.2463C11.0125 11.5437 12.5 9.06875 12.5 6.25C12.5 4.5924 11.8415 3.00269 10.6694 1.83058C9.49732 0.65848 7.9076 0 6.25 0C4.5924 0 3.00269 0.65848 1.83058 1.83058C0.65848 3.00269 0 4.5924 0 6.25C0 9.06875 1.4875 11.5437 2.865 13.2463C3.63428 14.1918 4.49053 15.0631 5.4225 15.8488L5.65875 16.04L5.67375 16.0513ZM6.25 8.125C6.49623 8.125 6.74005 8.0765 6.96753 7.98227C7.19502 7.88805 7.40172 7.74994 7.57583 7.57583C7.74994 7.40172 7.88805 7.19502 7.98227 6.96753C8.0765 6.74005 8.125 6.49623 8.125 6.25C8.125 6.00377 8.0765 5.75995 7.98227 5.53247C7.88805 5.30498 7.74994 5.09828 7.57583 4.92417C7.40172 4.75006 7.19502 4.61195 6.96753 4.51773C6.74005 4.4235 6.49623 4.375 6.25 4.375C5.75272 4.375 5.27581 4.57254 4.92417 4.92417C4.57254 5.27581 4.375 5.75272 4.375 6.25C4.375 6.74728 4.57254 7.22419 4.92417 7.57583C5.27581 7.92746 5.75272 8.125 6.25 8.125Z" fill="#DE5252"/>
</svg>
