<svg width="20" height="20" viewBox="0 0 20 20" fill="none" xmlns="http://www.w3.org/2000/svg">
<path d="M16.7375 2.67808C16.0531 1.9937 14.9469 1.9937 14.2625 2.67808L13.5 3.44058L16.5594 6.49995L17.3219 5.73745C18.0063 5.05308 18.0063 3.94683 17.3219 3.26245L16.7375 2.67808ZM7.3875 9.55308C7.19687 9.7437 7.05 9.97808 6.96562 10.2375L6.04063 13.0125C5.95 13.2812 6.02188 13.5781 6.22188 13.7812C6.42188 13.9843 6.71875 14.0531 6.99062 13.9625L9.76562 13.0375C10.0219 12.9531 10.2562 12.8062 10.45 12.6156L15.5 7.55933L12.4406 4.49995L7.3875 9.55308ZM5 3.99995C3.34375 3.99995 2 5.3437 2 6.99995V15C2 16.6562 3.34375 18 5 18H13C14.6562 18 16 16.6562 16 15V12C16 11.4468 15.5531 11 15 11C14.4469 11 14 11.4468 14 12V15C14 15.5531 13.5531 16 13 16H5C4.44688 16 4 15.5531 4 15V6.99995C4 6.44683 4.44688 5.99995 5 5.99995H8C8.55312 5.99995 9 5.55308 9 4.99995C9 4.44683 8.55312 3.99995 8 3.99995H5Z" fill="#36383E" fill-opacity="0.9"/>
</svg>
