<svg width="24" height="24" viewBox="0 0 24 24" fill="none" xmlns="http://www.w3.org/2000/svg">
<path fill-rule="evenodd" clip-rule="evenodd" d="M20 5V21C20 21.181 19.9509 21.3587 19.8579 21.514C19.7648 21.6693 19.6314 21.7965 19.4718 21.8819C19.3121 21.9673 19.1323 22.0078 18.9515 21.999C18.7707 21.9902 18.5956 21.9325 18.445 21.832L16.127 20.287L14.707 21.707C14.5348 21.8792 14.3057 21.9826 14.0627 21.9979C13.8197 22.0132 13.5794 21.9393 13.387 21.79L13.293 21.707L12 20.415L10.707 21.707C10.5348 21.8792 10.3057 21.9826 10.0627 21.9979C9.81965 22.0132 9.5794 21.9393 9.387 21.79L9.293 21.707L7.872 20.287L5.555 21.832L5.536 21.844L5.482 21.874L5.454 21.891L5.4 21.914L5.35 21.937L5.301 21.952L5.241 21.971L5.189 21.98L5.132 21.991L5.048 21.997L5.022 22H5L4.951 21.997H4.912L4.899 21.994H4.883L4.842 21.986L4.804 21.981L4.789 21.976L4.771 21.974L4.737 21.963L4.697 21.953L4.678 21.946L4.663 21.942L4.634 21.929L4.594 21.914L4.573 21.903L4.56 21.898L4.532 21.882L4.496 21.864L4.482 21.854L4.464 21.844L4.426 21.817L4.404 21.803L4.394 21.794L4.374 21.78L4.329 21.739L4.317 21.731L4.293 21.707L4.258 21.668L4.238 21.648L4.231 21.637L4.22 21.625L4.188 21.58L4.168 21.555L4.156 21.536L4.126 21.482L4.109 21.454L4.086 21.4L4.063 21.35C4.04964 21.3147 4.03828 21.2786 4.029 21.242L4.019 21.185L4.009 21.132L4 21V5V4C4 2.89543 4.89543 2 6 2H7H17H18C19.1046 2 20 2.89543 20 4V5ZM11 9.5H9C8.73478 9.5 8.48043 9.60536 8.29289 9.79289C8.10536 9.98043 8 10.2348 8 10.5C8 10.7652 8.10536 11.0196 8.29289 11.2071C8.48043 11.3946 8.73478 11.5 9 11.5H10H11C11.2652 11.5 11.5196 11.3946 11.7071 11.2071C11.8946 11.0196 12 10.7652 12 10.5C12 10.2348 11.8946 9.98043 11.7071 9.79289C11.5196 9.60536 11.2652 9.5 11 9.5ZM15 6H9C8.73478 6 8.48043 6.10536 8.29289 6.29289C8.10536 6.48043 8 6.73478 8 7C8 7.26522 8.10536 7.51957 8.29289 7.70711C8.48043 7.89464 8.73478 8 9 8H15C15.2652 8 15.5196 7.89464 15.7071 7.70711C15.8946 7.51957 16 7.26522 16 7C16 6.73478 15.8946 6.48043 15.7071 6.29289C15.5196 6.10536 15.2652 6 15 6Z" fill="currentColor"/>
</svg>
