<svg width="32" height="32" viewBox="0 0 32 32" fill="none" xmlns="http://www.w3.org/2000/svg">
<path d="M29.3319 10.6667C29.3319 10.4247 29.266 10.1874 29.1413 9.98002L25.5293 3.96002C25.2913 3.56648 24.9561 3.24078 24.5559 3.01428C24.1556 2.78777 23.7038 2.66807 23.2439 2.66669H8.75328C7.82262 2.66669 6.94662 3.16269 6.46795 3.96135L2.85595 9.98002C2.73127 10.1874 2.66536 10.4247 2.66528 10.6667C2.66528 12.0067 3.17995 13.2187 3.99862 14.1574V26.6667C3.99862 27.0203 4.13909 27.3594 4.38914 27.6095C4.63919 27.8595 4.97833 28 5.33195 28H15.9986C16.3522 28 16.6914 27.8595 16.9414 27.6095C17.1915 27.3594 17.3319 27.0203 17.3319 26.6667V20H22.6653V26.6667C22.6653 27.0203 22.8058 27.3594 23.0558 27.6095C23.3059 27.8595 23.645 28 23.9986 28H26.6653C27.0189 28 27.358 27.8595 27.6081 27.6095C27.8581 27.3594 27.9986 27.0203 27.9986 26.6667V14.1574C28.8173 13.2187 29.3319 12.0067 29.3319 10.6667ZM26.6439 11.0014C26.5625 11.6455 26.2488 12.2377 25.7618 12.667C25.2748 13.0964 24.6479 13.3333 23.9986 13.3334C22.5279 13.3334 21.3319 12.1374 21.3319 10.6667C21.3319 10.576 21.2986 10.496 21.2799 10.4107L21.3066 10.4054L20.2919 5.33335H23.2439L26.6439 11.0014ZM13.3413 10.7534L14.4239 5.33335H17.5719L18.6559 10.7534C18.6093 12.184 17.4386 13.3334 15.9986 13.3334C14.5586 13.3334 13.3879 12.184 13.3413 10.7534ZM8.75328 5.33335H11.7053L10.6919 10.4054L10.7186 10.4107C10.6986 10.496 10.6653 10.576 10.6653 10.6667C10.6653 12.1374 9.46928 13.3334 7.99862 13.3334C7.34938 13.3333 6.72246 13.0964 6.23544 12.667C5.74842 12.2377 5.43476 11.6455 5.35328 11.0014L8.75328 5.33335ZM13.3319 21.3334H7.99862V17.3334H13.3319V21.3334Z" fill="#FFB60B"/>
</svg>
