<svg width="10" height="10" viewBox="0 0 10 10" fill="none" xmlns="http://www.w3.org/2000/svg">
<path d="M9.16634 3.33337C9.16632 3.25777 9.14572 3.18359 9.10676 3.11879L7.97801 1.23754C7.90365 1.11456 7.79889 1.01278 7.67382 0.941996C7.54874 0.871212 7.40756 0.833805 7.26384 0.833374H2.73551C2.44467 0.833374 2.17092 0.988374 2.02134 1.23796L0.892591 3.11879C0.853629 3.18359 0.833032 3.25777 0.833008 3.33337C0.833008 3.75212 0.993841 4.13087 1.24967 4.42421V8.33337C1.24967 8.44388 1.29357 8.54986 1.37171 8.628C1.44985 8.70614 1.55583 8.75004 1.66634 8.75004H4.99967C5.11018 8.75004 5.21616 8.70614 5.2943 8.628C5.37244 8.54986 5.41634 8.44388 5.41634 8.33337V6.25004H7.08301V8.33337C7.08301 8.44388 7.12691 8.54986 7.20505 8.628C7.28319 8.70614 7.38917 8.75004 7.49967 8.75004H8.33301C8.44351 8.75004 8.54949 8.70614 8.62764 8.628C8.70578 8.54986 8.74967 8.44388 8.74967 8.33337V4.42421C9.00551 4.13087 9.16634 3.75212 9.16634 3.33337ZM8.32634 3.43796C8.30088 3.63924 8.20286 3.82432 8.05067 3.95849C7.89847 4.09265 7.70256 4.16669 7.49967 4.16671C7.04009 4.16671 6.66634 3.79296 6.66634 3.33337C6.66634 3.30504 6.65592 3.28004 6.65009 3.25337L6.65842 3.25171L6.34134 1.66671H7.26384L8.32634 3.43796ZM4.16926 3.36046L4.50759 1.66671H5.49134L5.83009 3.36046C5.81551 3.80754 5.44967 4.16671 4.99967 4.16671C4.54967 4.16671 4.18384 3.80754 4.16926 3.36046ZM2.73551 1.66671H3.65801L3.34134 3.25171L3.34967 3.25337C3.34342 3.28004 3.33301 3.30504 3.33301 3.33337C3.33301 3.79296 2.95926 4.16671 2.49967 4.16671C2.29679 4.16669 2.10088 4.09265 1.94868 3.95849C1.79649 3.82432 1.69847 3.63924 1.67301 3.43796L2.73551 1.66671ZM4.16634 6.66671H2.49967V5.41671H4.16634V6.66671Z" fill="#36383E" fill-opacity="0.3"/>
</svg>
