<svg width="18" height="17" viewBox="0 0 18 17" fill="none" xmlns="http://www.w3.org/2000/svg">
<path d="M3.97917 16.6667C3.53472 16.6667 3.16306 16.5 2.86417 16.1667C2.56528 15.8333 2.44389 15.4444 2.5 15H5.89583L6.72917 11.6667H8.39583L9.64583 6.66667H3.54167L3.77083 4.79167C3.82639 4.375 4.01389 4.02778 4.33333 3.75C4.65278 3.47222 5.02083 3.33333 5.4375 3.33333H7.08333C7.19444 2.29167 7.55222 1.47583 8.15667 0.885833C8.76111 0.295833 9.58389 0.000555556 10.625 0C11.5139 0 12.2536 0.33 12.8442 0.99C13.4347 1.65 13.7228 2.43111 13.7083 3.33333H15.8333C16.3333 3.33333 16.75 3.52083 17.0833 3.89583C17.4167 4.27083 17.5486 4.70833 17.4792 5.20833L16.2292 15.2083C16.1736 15.625 15.9894 15.9722 15.6767 16.25C15.3639 16.5278 14.9994 16.6667 14.5833 16.6667H3.97917ZM0 13.3333L0.416667 11.6667H5L4.58333 13.3333H0ZM1.66667 10L2.08333 8.33333H7.5L7.08333 10H1.66667ZM8.75 3.33333H12.0625C12.0764 2.875 11.9203 2.48278 11.5942 2.15667C11.2681 1.83056 10.8756 1.66722 10.4167 1.66667C9.93056 1.66667 9.545 1.81611 9.26 2.115C8.975 2.41389 8.805 2.82 8.75 3.33333Z" fill="#15B660"/>
</svg>
