<svg width="45" height="45" viewBox="0 0 45 45" fill="none" xmlns="http://www.w3.org/2000/svg">
<path fill-rule="evenodd" clip-rule="evenodd" d="M18.4262 39.0001H26.5735C32.2953 39.0001 35.1572 39.0001 37.2123 37.6526C38.0993 37.0717 38.8631 36.3216 39.46 35.4453C40.8332 33.4286 40.8332 30.6181 40.8332 25.0008C40.8332 19.3834 40.8332 16.5729 39.46 14.5563C38.8631 13.6799 38.0993 12.9298 37.2123 12.3489C35.8923 11.4818 34.2387 11.1719 31.7068 11.0619C30.4987 11.0619 29.4592 10.1636 29.2227 8.99942C29.0419 8.14668 28.5723 7.38249 27.8932 6.836C27.2141 6.28951 26.3672 5.99423 25.4955 6.00009H19.5042C17.6928 6.00009 16.1327 7.25592 15.777 8.99942C15.5405 10.1636 14.501 11.0619 13.2928 11.0619C10.7628 11.1719 9.10917 11.4836 7.78734 12.3489C6.90099 12.93 6.13784 13.6801 5.5415 14.5563C4.1665 16.5729 4.1665 19.3816 4.1665 25.0008C4.1665 30.6199 4.1665 33.4268 5.53967 35.4453C6.13367 36.3179 6.89634 37.0678 7.78734 37.6526C9.8425 39.0001 12.7043 39.0001 18.4262 39.0001ZM22.4998 17.5006C18.2813 17.5006 14.8603 20.8574 14.8603 24.9989C14.8603 29.1404 18.2832 32.5028 22.4998 32.5028C26.7165 32.5028 30.1393 29.1441 30.1393 25.0026C30.1393 20.8611 26.7165 17.5006 22.4998 17.5006ZM22.4998 20.4999C19.9698 20.4999 17.9165 22.5148 17.9165 25.0008C17.9165 27.4849 19.9698 29.4998 22.4998 29.4998C25.0298 29.4998 27.0832 27.4849 27.0832 25.0008C27.0832 22.5166 25.0298 20.4999 22.4998 20.4999ZM31.1568 19.0003C31.1568 18.1716 31.8407 17.5006 32.6858 17.5006H34.7208C35.5642 17.5006 36.2498 18.1716 36.2498 19.0003C36.246 19.4016 36.0829 19.7849 35.7966 20.0661C35.5102 20.3473 35.124 20.5033 34.7227 20.4999H32.6858C32.487 20.5019 32.2897 20.4646 32.1052 20.3903C31.9207 20.316 31.7527 20.206 31.6107 20.0668C31.4687 19.9275 31.3556 19.7617 31.2777 19.5787C31.1998 19.3957 31.1588 19.1991 31.1568 19.0003Z" fill="#92949D"/>
</svg>
