<svg width="80" height="25" viewBox="0 0 80 25" fill="none" xmlns="http://www.w3.org/2000/svg">
<path d="M19.6924 2.53461C19.6924 3.74648 19.6943 4.50824 19.7412 5.08246C19.7856 5.62529 19.8577 5.78392 19.8799 5.82758C20.0451 6.15179 20.3096 6.41628 20.6338 6.58148C20.6774 6.60362 20.8359 6.67579 21.3789 6.72015C21.9531 6.76702 22.7149 6.76898 23.9268 6.76898H24.6152V11.6918H23.9268C22.7957 11.6918 21.7987 11.6944 20.9775 11.6274C20.5355 11.5913 20.0861 11.5303 19.6367 11.4203C19.6716 11.7113 19.6924 12.0077 19.6924 12.308C19.6921 16.3862 16.3859 19.6918 12.3076 19.6918C11.4226 19.6918 10.5745 19.5349 9.78809 19.2495C9.84587 20.0475 9.8457 21.0031 9.8457 22.0805V22.769H4.92285V22.0805C4.92285 20.8686 4.92089 20.1069 4.87402 19.5327C4.82965 18.9896 4.75748 18.8311 4.73535 18.7875C4.57022 18.4635 4.30646 18.1988 3.98242 18.0336C3.93919 18.0116 3.78041 17.9394 3.23633 17.895C2.66213 17.8481 1.90027 17.8461 0.688477 17.8461H0V12.9233H0.688477C1.81966 12.9233 2.81739 12.9206 3.63867 12.9877C4.08016 13.0238 4.52874 13.0841 4.97754 13.1938C4.94279 12.9033 4.92287 12.6079 4.92285 12.308C4.92285 8.22966 8.22924 4.92332 12.3076 4.92328C13.1922 4.92328 14.0401 5.07949 14.8262 5.36469C14.7685 4.56685 14.7695 3.6115 14.7695 2.53461V1.84613H19.6924V2.53461ZM12.3076 9.84613C10.9482 9.84617 9.8457 10.9486 9.8457 12.308C9.84597 13.6673 10.9483 14.7689 12.3076 14.769C13.6669 14.769 14.7693 13.6673 14.7695 12.308C14.7695 10.9486 13.6671 9.84613 12.3076 9.84613Z" fill="#FFCC3E"/>
<path d="M73.5678 17.735C74.3165 17.735 74.861 17.3868 75.2014 16.6903C75.3375 16.3845 75.4056 16.0702 75.4056 15.7474C75.4056 14.949 75.0823 14.3629 74.4356 13.9892C74.1634 13.8363 73.8741 13.7599 73.5678 13.7599C72.8191 13.7599 72.2745 14.1081 71.9342 14.8046C71.7981 15.1104 71.73 15.4247 71.73 15.7474C71.73 16.5459 72.0533 17.1319 72.6999 17.5057C72.9722 17.6586 73.2615 17.735 73.5678 17.735ZM73.5678 10.8549C75.2014 10.8549 76.5117 11.4495 77.4986 12.6387C78.2474 13.539 78.6217 14.5753 78.6217 15.7474C78.6217 17.3273 78.0091 18.5929 76.7839 19.5442C75.848 20.2747 74.776 20.6399 73.5678 20.6399C71.9342 20.6399 70.6239 20.0454 69.6369 18.8562C68.8882 17.9559 68.5138 16.9196 68.5138 15.7474C68.5138 14.1676 69.1264 12.902 70.3516 11.9507C71.2876 11.2202 72.3596 10.8549 73.5678 10.8549ZM78.1623 0.611267V3.66908H80.0001V6.574H78.1623V9.7847H74.9461V0.611267H78.1623ZM64.0725 0.611267H73.2615V6.42111H67.2887C67.3227 6.81183 67.5269 7.01568 67.9013 7.03267H73.2615V9.7847H67.1355C65.3488 9.7847 64.3448 9.06272 64.1236 7.61875C64.0895 7.38092 64.0725 7.1346 64.0725 6.87978V3.97486H70.0453V3.3633H64.0725V0.611267Z" fill="#FFCC3E"/>
<path d="M53.3961 0.611267H56.6122V9.7847H53.3961V6.574H51.5583V3.66908H53.3961V0.611267ZM58.2969 9.7847V0.611267H61.513V9.7847H58.2969ZM51.7114 3.51619H48.725V5.80955C48.7591 6.50605 49.0654 6.86279 49.6439 6.87978H51.7114V9.7847H49.7971C48.5038 9.76771 47.6104 9.41097 47.1169 8.71447C46.5894 9.42796 45.6961 9.7847 44.4368 9.7847H42.5225V6.87978H44.59C45.1856 6.84581 45.4919 6.48906 45.5089 5.80955V3.51619H42.5225V0.611267H51.7114V3.51619Z" fill="#FFCC3E"/>
<path d="M33.7557 13.913H30.7693V11.0081H39.9583V13.913H36.9718V15.442C38.7416 15.5439 39.72 16.3848 39.9072 17.9646C39.9412 18.1855 39.9583 18.4148 39.9583 18.6527V24.6154H36.7421V19.4171C36.7081 18.7206 36.4018 18.3639 35.8232 18.3469H30.7693V15.442H33.7557V13.913ZM39.9583 4.12805H36.9718V5.80984C37.0059 6.50634 37.3122 6.86309 37.8907 6.88008H39.9583V9.785H38.0439C36.7506 9.76801 35.8573 9.41127 35.3638 8.71476C34.8363 9.42825 33.9429 9.785 32.6837 9.785H30.7693V6.88008H32.8368C33.4324 6.8461 33.7387 6.48936 33.7557 5.80984V4.12805H30.7693V1.22312H33.7557V0H36.9718V1.22312H39.9583V4.12805Z" fill="#FFCC3E"/>
</svg>
